<?xml version="1.0" encoding="UTF-8" standalone="no"?>
<!DOCTYPE svg PUBLIC "-//W3C//DTD SVG 1.1//EN" "http://www.w3.org/Graphics/SVG/1.1/DTD/svg11.dtd">
<svg width="100%" height="100%" viewBox="0 0 1024 1024" version="1.1" xmlns="http://www.w3.org/2000/svg" xmlns:xlink="http://www.w3.org/1999/xlink" xml:space="preserve" style="fill-rule:evenodd;clip-rule:evenodd;stroke-linejoin:round;stroke-miterlimit:1.41421;">
    <path d="M519.13,180.79C546.17,180.79 573.55,186.67 598.21,197.73C639.04,216.04 672.39,250.6 688.9,292.33C698.35,316.22 698.63,343.73 698.41,369.05C698.28,383.66 697.59,398.25 696.75,412.83C696.32,420.16 695.86,427.48 695.4,434.81C695.15,438.83 694.9,442.85 694.66,446.87C694.51,449.46 693.61,452.96 694.18,455.51C695.43,461.12 704.33,464.86 709.24,466.41C722.21,470.49 735.77,467.55 748.25,463.1C755.69,460.45 762.39,456.01 770.55,456.76C776.46,457.3 783.31,459.94 787.52,464.22C791.94,468.72 791.01,473.16 787.21,477.47C779.99,485.66 768.07,490.32 757.99,493.64C746.95,497.27 735.75,500.5 725.46,506.03C715.32,511.48 705.96,519.32 701.96,530.45C697.31,543.39 701.19,556.55 706.66,568.53C715.95,588.88 728.02,607.95 742.13,625.31C768.51,657.77 802.99,684.1 843.43,696.11C849.37,697.87 855.39,699.33 861.48,700.47C864.06,700.95 865.73,700.36 864.82,703.11C864.7,703.46 864.46,703.79 864.28,704.1C862.93,706.36 860.72,708.17 858.62,709.7C846.7,718.42 831,722.43 816.92,725.88C810.26,727.52 803.54,728.93 796.8,730.2C790.1,731.46 781.94,731.49 775.68,734.21C765.23,738.74 763.67,754.33 761.54,763.95C760.71,767.71 759.85,771.46 758.85,775.18C757.96,778.48 758.23,780.17 754.71,780.22C748.67,780.32 742.59,778.72 736.69,777.63C722.8,775.07 708.71,773.7 694.58,774.04C679.14,774.41 663.37,776.19 649.02,782.16C635.29,787.88 623.01,796.51 610.92,805.04C589.79,819.95 568.33,834.74 542.65,840.43C529.78,843.28 516.47,843.58 503.34,843.16C489.34,842.71 475.55,839.8 462.56,834.59C437.79,824.65 417.64,807.06 395.29,792.98C382.59,784.98 369.1,778.64 354.18,776.3C338.35,773.81 322.26,773.31 306.32,775.01C300.13,775.67 293.99,776.65 287.87,777.8C281.88,778.92 275.4,781.04 269.27,780.8C266.38,780.68 266.35,779.81 265.58,777.1C264.45,773.07 263.52,768.99 262.62,764.9C261.24,758.65 260.08,752.25 257.83,746.24C256.07,741.54 253.47,736.75 248.76,734.48C242.74,731.58 234.5,731.64 227.96,730.41C215.78,728.13 203.63,725.43 191.8,721.69C181.64,718.48 169.39,714.57 161.74,706.65C161.01,705.9 160.29,705.1 159.75,704.2C159.57,703.91 159.32,703.59 159.22,703.26C158.39,700.71 159.38,701.06 161.87,700.6C173.64,698.44 185.18,695.11 196.28,690.65C216.6,682.51 235.3,670.67 251.85,656.38C276.13,635.43 296.23,609.35 311.22,581.03C316.34,571.35 321.84,560.76 323.57,549.95C327.92,522.81 305.58,507.45 283.06,499.26C271.1,494.91 258.77,491.93 247.61,485.59C242.52,482.7 232.63,476.93 233.4,469.72C233.98,464.24 240.76,460.54 245.29,458.84C248.36,457.69 251.73,456.94 255.03,457.12C259,457.34 262.4,459.44 266.02,460.92C279.17,466.31 293.88,470.15 308.16,467.93C315.3,466.82 322.7,464.11 327.85,458.85C329.09,457.58 329.55,457.05 329.83,455.51C330.34,452.67 329.46,448.88 329.3,446.04C328.85,438.46 328.36,430.88 327.89,423.3C326.1,394.39 324.37,365.25 326.52,336.31C327.44,323.9 329.06,311.38 332.68,299.44C336.28,287.58 342.31,276.32 348.77,265.79C360.68,246.39 376.15,229.26 394.58,215.86C421.59,196.21 454.2,184.94 487.34,181.78C497.89,180.77 508.53,180.79 519.13,180.79M0,860.16C0,950.64 73.36,1024 163.84,1024L860.16,1024C950.64,1024 1024,950.64 1024,860.16L1024,163.84C1024,73.36 950.64,0 860.16,0L163.84,0C73.36,0 0,73.36 0,163.84L0,860.16" style="fill:black;fill-rule:nonzero;"/>
    <path d="M19.2,163.84C19.2,83.97 83.97,19.2 163.84,19.2L860.16,19.2C940.03,19.2 1004.8,83.97 1004.8,163.84L1004.8,860.16C1004.8,940.03 940.03,1004.8 860.16,1004.8L163.84,1004.8C83.97,1004.8 19.2,940.03 19.2,860.16L19.2,163.84M519.13,165.5C494.66,165.61 470.9,167.11 447.2,173.83C409.41,184.55 375.32,206.09 350.55,236.73C335.2,255.71 321.86,278.29 316.12,302.18C309.73,328.8 309.78,356.88 310.62,384.08C311.06,398.45 311.9,412.8 312.8,427.15C313.02,430.62 313.24,434.08 313.46,437.54C313.61,439.87 315.3,448.7 313.91,450.29C311.01,453.59 301.79,453.36 298.04,453.22C291.31,452.97 284.67,451.37 278.32,449.21C271.39,446.85 264.84,442.66 257.45,441.94C245.87,440.82 233.05,445.62 225.06,454.07C211.48,468.44 220.09,485.4 234.11,495.14C245.43,503 258.38,507.12 271.33,511.38C282.04,514.9 293.83,518.97 302,527.08C313.93,538.92 307.25,554.52 300.95,567.46C296.04,577.54 290.31,587.23 284.06,596.54C262.77,628.22 234.38,656.07 199.59,672.48C189.11,677.42 178.13,681.28 166.84,683.92C161.3,685.22 154.56,685.3 149.8,688.66C144.62,692.32 142.49,698.64 143.71,704.76C146.82,720.35 165.5,728.46 178.67,733.36C190.3,737.69 202.4,740.75 214.52,743.31C221.91,744.87 229.35,746.23 236.8,747.45C240.44,748.05 242.1,747.8 243.43,751.32C244.46,754.04 245.12,756.9 245.8,759.73C247.46,766.68 248.79,773.7 250.69,780.58C251.94,785.1 253.57,789.4 257.38,792.4C267.24,800.16 282.84,794.17 293.8,792.22C323.06,787.02 354.95,787.2 381.3,802.36C404.19,815.52 423.95,833.35 447.9,844.8C473.37,856.98 501.52,860.49 529.5,857.89C555.71,855.45 579.41,844.69 601.16,830.34C624.91,814.67 646.75,794.78 675.94,790.82C691.83,788.67 707.93,788.79 723.8,791C734.8,792.53 746.24,796.37 757.42,795.4C772.59,794.07 774.18,777.56 776.81,765.61C777.87,760.8 778.35,753.61 781.23,749.49C782.92,747.07 787.68,747.32 790.59,746.83C794.66,746.14 798.72,745.4 802.78,744.61C824.04,740.46 847.57,735.57 865.85,723.25C871.14,719.68 876.19,715.13 878.82,709.19C881.29,703.61 881.37,697.13 877.65,692.08C873.76,686.79 868.07,686.2 862.1,685C839.83,680.52 818.75,671.27 800.01,658.49C771.29,638.91 747.99,611.66 730.62,581.7C727,575.46 723.71,569.07 720.7,562.51C716.06,552.39 711.87,540.42 719.09,530.41C725.74,521.19 737.76,516.56 748.09,512.93C760.79,508.47 773.64,504.99 785.33,498.07C793.86,493.02 802.82,485.88 805.27,475.76C811.69,449.17 773.68,435.71 753.92,444.2C741.72,449.44 726.9,456.16 713.46,451.71C712.59,451.42 711.06,451.14 710.42,450.48C709.34,449.37 709.91,447.59 710.01,445.87C710.24,441.98 710.49,438.09 710.73,434.19C711.1,428.17 711.49,422.15 711.85,416.13C713.53,387.67 714.9,358.95 712.31,330.5C711.16,317.86 709.23,305.17 705.35,293.06C701.57,281.25 695.64,269.99 689.27,259.38C677.41,239.61 662.18,221.91 644.05,207.64C616.76,186.16 583.61,172.98 549.37,167.86C539.38,166.35 529.25,165.5 519.13,165.5M220.88,45.66C211.867,45.66 204.45,53.077 204.45,62.09C204.45,71.103 211.867,78.52 220.88,78.52C229.893,78.52 237.31,71.103 237.31,62.09C237.31,53.077 229.893,45.66 220.88,45.66M273.81,45.66C264.797,45.66 257.38,53.077 257.38,62.09C257.38,71.103 264.797,78.52 273.81,78.52C282.823,78.52 290.24,71.103 290.24,62.09C290.24,53.077 282.823,45.66 273.81,45.66M326.74,45.66C317.727,45.66 310.31,53.077 310.31,62.09C310.31,71.103 317.727,78.52 326.74,78.52C335.753,78.52 343.17,71.103 343.17,62.09C343.17,53.077 335.753,45.66 326.74,45.66M379.67,45.66C370.657,45.66 363.24,53.077 363.24,62.09C363.24,71.103 370.657,78.52 379.67,78.52C388.683,78.52 396.1,71.103 396.1,62.09C396.1,53.077 388.683,45.66 379.67,45.66M697.26,45.66C688.247,45.66 680.83,53.077 680.83,62.09C680.83,71.103 688.247,78.52 697.26,78.52C706.273,78.52 713.69,71.103 713.69,62.09C713.69,53.077 706.273,45.66 697.26,45.66M750.19,45.66C741.177,45.66 733.76,53.077 733.76,62.09C733.76,71.103 741.177,78.52 750.19,78.52C759.203,78.52 766.62,71.103 766.62,62.09C766.62,53.077 759.203,45.66 750.19,45.66M803.12,45.66C794.107,45.66 786.69,53.077 786.69,62.09C786.69,71.103 794.107,78.52 803.12,78.52C812.133,78.52 819.55,71.103 819.55,62.09C819.55,53.077 812.133,45.66 803.12,45.66M220.88,98.59C211.867,98.59 204.45,106.007 204.45,115.02C204.45,124.033 211.867,131.45 220.88,131.45C229.893,131.45 237.31,124.033 237.31,115.02C237.31,106.007 229.893,98.59 220.88,98.59M273.81,98.59C264.797,98.59 257.38,106.007 257.38,115.02C257.38,124.033 264.797,131.45 273.81,131.45C282.823,131.45 290.24,124.033 290.24,115.02C290.24,106.007 282.823,98.59 273.81,98.59M485.53,98.59C476.517,98.59 469.1,106.007 469.1,115.02C469.1,124.033 476.517,131.45 485.53,131.45C494.543,131.45 501.96,124.033 501.96,115.02C501.96,106.007 494.543,98.59 485.53,98.59M538.47,98.59C529.457,98.59 522.04,106.007 522.04,115.02C522.04,124.033 529.457,131.45 538.47,131.45C547.483,131.45 554.9,124.033 554.9,115.02C554.9,106.007 547.483,98.59 538.47,98.59M644.33,98.59C635.317,98.59 627.9,106.007 627.9,115.02C627.9,124.033 635.317,131.45 644.33,131.45C653.343,131.45 660.76,124.033 660.76,115.02C660.76,106.007 653.343,98.59 644.33,98.59M750.19,98.59C741.177,98.59 733.76,106.007 733.76,115.02C733.76,124.033 741.177,131.45 750.19,131.45C759.203,131.45 766.62,124.033 766.62,115.02C766.62,106.007 759.203,98.59 750.19,98.59M115.02,151.52C106.007,151.52 98.59,158.937 98.59,167.95C98.59,176.963 106.007,184.38 115.02,184.38C124.033,184.38 131.45,176.963 131.45,167.95C131.45,158.937 124.033,151.52 115.02,151.52M220.88,151.52C211.867,151.52 204.45,158.937 204.45,167.95C204.45,176.963 211.867,184.38 220.88,184.38C229.893,184.38 237.31,176.963 237.31,167.95C237.31,158.937 229.893,151.52 220.88,151.52M803.12,151.52C794.107,151.52 786.69,158.937 786.69,167.95C786.69,176.963 794.107,184.38 803.12,184.38C812.133,184.38 819.55,176.963 819.55,167.95C819.55,158.937 812.133,151.52 803.12,151.52M908.98,151.52C899.967,151.52 892.55,158.937 892.55,167.95C892.55,176.963 899.967,184.38 908.98,184.38C917.993,184.38 925.41,176.963 925.41,167.95C925.41,158.937 917.993,151.52 908.98,151.52M115.02,204.45C106.007,204.45 98.59,211.867 98.59,220.88C98.59,229.893 106.007,237.31 115.02,237.31C124.033,237.31 131.45,229.893 131.45,220.88C131.45,211.867 124.033,204.45 115.02,204.45M273.81,204.45C264.797,204.45 257.38,211.867 257.38,220.88C257.38,229.893 264.797,237.31 273.81,237.31C282.823,237.31 290.24,229.893 290.24,220.88C290.24,211.867 282.823,204.45 273.81,204.45M908.98,204.45C899.967,204.45 892.55,211.867 892.55,220.88C892.55,229.893 899.967,237.31 908.98,237.31C917.993,237.31 925.41,229.893 925.41,220.88C925.41,211.867 917.993,204.45 908.98,204.45M115.02,257.38C106.007,257.38 98.59,264.797 98.59,273.81C98.59,282.823 106.007,290.24 115.02,290.24C124.033,290.24 131.45,282.823 131.45,273.81C131.45,264.797 124.033,257.38 115.02,257.38M167.95,257.38C158.937,257.38 151.52,264.797 151.52,273.81C151.52,282.823 158.937,290.24 167.95,290.24C176.963,290.24 184.38,282.823 184.38,273.81C184.38,264.797 176.963,257.38 167.95,257.38M273.81,257.38C264.797,257.38 257.38,264.797 257.38,273.81C257.38,282.823 264.797,290.24 273.81,290.24C282.823,290.24 290.24,282.823 290.24,273.81C290.24,264.797 282.823,257.38 273.81,257.38M961.91,257.38C952.897,257.38 945.48,264.797 945.48,273.81C945.48,282.823 952.897,290.24 961.91,290.24C970.923,290.24 978.34,282.823 978.34,273.81C978.34,264.797 970.923,257.38 961.91,257.38M62.09,310.31C53.077,310.31 45.66,317.727 45.66,326.74C45.66,335.753 53.077,343.17 62.09,343.17C71.103,343.17 78.52,335.753 78.52,326.74C78.52,317.727 71.103,310.31 62.09,310.31M115.02,310.31C106.007,310.31 98.59,317.727 98.59,326.74C98.59,335.753 106.007,343.17 115.02,343.17C124.033,343.17 131.45,335.753 131.45,326.74C131.45,317.727 124.033,310.31 115.02,310.31M856.05,310.31C847.037,310.31 839.62,317.727 839.62,326.74C839.62,335.753 847.037,343.17 856.05,343.17C865.063,343.17 872.48,335.753 872.48,326.74C872.48,317.727 865.063,310.31 856.05,310.31M115.02,363.24C106.007,363.24 98.59,370.657 98.59,379.67C98.59,388.683 106.007,396.1 115.02,396.1C124.033,396.1 131.45,388.683 131.45,379.67C131.45,370.657 124.033,363.24 115.02,363.24M750.19,363.24C741.177,363.24 733.76,370.657 733.76,379.67C733.76,388.683 741.177,396.1 750.19,396.1C759.203,396.1 766.62,388.683 766.62,379.67C766.62,370.657 759.203,363.24 750.19,363.24M803.12,363.24C794.107,363.24 786.69,370.657 786.69,379.67C786.69,388.683 794.107,396.1 803.12,396.1C812.133,396.1 819.55,388.683 819.55,379.67C819.55,370.657 812.133,363.24 803.12,363.24M908.98,363.24C899.967,363.24 892.55,370.657 892.55,379.67C892.55,388.683 899.967,396.1 908.98,396.1C917.993,396.1 925.41,388.683 925.41,379.67C925.41,370.657 917.993,363.24 908.98,363.24M961.91,363.24C952.897,363.24 945.48,370.657 945.48,379.67C945.48,388.683 952.897,396.1 961.91,396.1C970.923,396.1 978.34,388.683 978.34,379.67C978.34,370.657 970.923,363.24 961.91,363.24M62.09,416.17C53.077,416.17 45.66,423.587 45.66,432.6C45.66,441.613 53.077,449.03 62.09,449.03C71.103,449.03 78.52,441.613 78.52,432.6C78.52,423.587 71.103,416.17 62.09,416.17M961.91,416.17C952.897,416.17 945.48,423.587 945.48,432.6C945.48,441.613 952.897,449.03 961.91,449.03C970.923,449.03 978.34,441.613 978.34,432.6C978.34,423.587 970.923,416.17 961.91,416.17M167.95,469.1C158.937,469.1 151.52,476.517 151.52,485.53C151.52,494.543 158.937,501.96 167.95,501.96C176.963,501.96 184.38,494.543 184.38,485.53C184.38,476.517 176.963,469.1 167.95,469.1M908.98,469.1C899.967,469.1 892.55,476.517 892.55,485.53C892.55,494.543 899.967,501.96 908.98,501.96C917.993,501.96 925.41,494.543 925.41,485.53C925.41,476.517 917.993,469.1 908.98,469.1M961.91,469.1C952.897,469.1 945.48,476.517 945.48,485.53C945.48,494.543 952.897,501.96 961.91,501.96C970.923,501.96 978.34,494.543 978.34,485.53C978.34,476.517 970.923,469.1 961.91,469.1M167.95,522.04C158.937,522.04 151.52,529.457 151.52,538.47C151.52,547.483 158.937,554.9 167.95,554.9C176.963,554.9 184.38,547.483 184.38,538.47C184.38,529.457 176.963,522.04 167.95,522.04M220.88,522.04C211.867,522.04 204.45,529.457 204.45,538.47C204.45,547.483 211.867,554.9 220.88,554.9C229.893,554.9 237.31,547.483 237.31,538.47C237.31,529.457 229.893,522.04 220.88,522.04M856.05,522.04C847.037,522.04 839.62,529.457 839.62,538.47C839.62,547.483 847.037,554.9 856.05,554.9C865.063,554.9 872.48,547.483 872.48,538.47C872.48,529.457 865.063,522.04 856.05,522.04M908.98,522.04C899.967,522.04 892.55,529.457 892.55,538.47C892.55,547.483 899.967,554.9 908.98,554.9C917.993,554.9 925.41,547.483 925.41,538.47C925.41,529.457 917.993,522.04 908.98,522.04M961.91,522.04C952.897,522.04 945.48,529.457 945.48,538.47C945.48,547.483 952.897,554.9 961.91,554.9C970.923,554.9 978.34,547.483 978.34,538.47C978.34,529.457 970.923,522.04 961.91,522.04M167.95,574.97C158.937,574.97 151.52,582.387 151.52,591.4C151.52,600.413 158.937,607.83 167.95,607.83C176.963,607.83 184.38,600.413 184.38,591.4C184.38,582.387 176.963,574.97 167.95,574.97M220.88,574.97C211.867,574.97 204.45,582.387 204.45,591.4C204.45,600.413 211.867,607.83 220.88,607.83C229.893,607.83 237.31,600.413 237.31,591.4C237.31,582.387 229.893,574.97 220.88,574.97M856.05,574.97C847.037,574.97 839.62,582.387 839.62,591.4C839.62,600.413 847.037,607.83 856.05,607.83C865.063,607.83 872.48,600.413 872.48,591.4C872.48,582.387 865.063,574.97 856.05,574.97M908.98,574.97C899.967,574.97 892.55,582.387 892.55,591.4C892.55,600.413 899.967,607.83 908.98,607.83C917.993,607.83 925.41,600.413 925.41,591.4C925.41,582.387 917.993,574.97 908.98,574.97M961.91,574.97C952.897,574.97 945.48,582.387 945.48,591.4C945.48,600.413 952.897,607.83 961.91,607.83C970.923,607.83 978.34,600.413 978.34,591.4C978.34,582.387 970.923,574.97 961.91,574.97M167.95,627.9C158.937,627.9 151.52,635.317 151.52,644.33C151.52,653.343 158.937,660.76 167.95,660.76C176.963,660.76 184.38,653.343 184.38,644.33C184.38,635.317 176.963,627.9 167.95,627.9M908.98,627.9C899.967,627.9 892.55,635.317 892.55,644.33C892.55,653.343 899.967,660.76 908.98,660.76C917.993,660.76 925.41,653.343 925.41,644.33C925.41,635.317 917.993,627.9 908.98,627.9M961.91,627.9C952.897,627.9 945.48,635.317 945.48,644.33C945.48,653.343 952.897,660.76 961.91,660.76C970.923,660.76 978.34,653.343 978.34,644.33C978.34,635.317 970.923,627.9 961.91,627.9M62.09,680.83C53.077,680.83 45.66,688.247 45.66,697.26C45.66,706.273 53.077,713.69 62.09,713.69C71.103,713.69 78.52,706.273 78.52,697.26C78.52,688.247 71.103,680.83 62.09,680.83M62.09,786.69C53.077,786.69 45.66,794.107 45.66,803.12C45.66,812.133 53.077,819.55 62.09,819.55C71.103,819.55 78.52,812.133 78.52,803.12C78.52,794.107 71.103,786.69 62.09,786.69M115.02,786.69C106.007,786.69 98.59,794.107 98.59,803.12C98.59,812.133 106.007,819.55 115.02,819.55C124.033,819.55 131.45,812.133 131.45,803.12C131.45,794.107 124.033,786.69 115.02,786.69M167.95,786.69C158.937,786.69 151.52,794.107 151.52,803.12C151.52,812.133 158.937,819.55 167.95,819.55C176.963,819.55 184.38,812.133 184.38,803.12C184.38,794.107 176.963,786.69 167.95,786.69M220.88,786.69C211.867,786.69 204.45,794.107 204.45,803.12C204.45,812.133 211.867,819.55 220.88,819.55C229.893,819.55 237.31,812.133 237.31,803.12C237.31,794.107 229.893,786.69 220.88,786.69M803.12,786.69C794.107,786.69 786.69,794.107 786.69,803.12C786.69,812.133 794.107,819.55 803.12,819.55C812.133,819.55 819.55,812.133 819.55,803.12C819.55,794.107 812.133,786.69 803.12,786.69M856.05,786.69C847.037,786.69 839.62,794.107 839.62,803.12C839.62,812.133 847.037,819.55 856.05,819.55C865.063,819.55 872.48,812.133 872.48,803.12C872.48,794.107 865.063,786.69 856.05,786.69M115.02,839.62C106.007,839.62 98.59,847.037 98.59,856.05C98.59,865.063 106.007,872.48 115.02,872.48C124.033,872.48 131.45,865.063 131.45,856.05C131.45,847.037 124.033,839.62 115.02,839.62M273.81,839.62C264.797,839.62 257.38,847.037 257.38,856.05C257.38,865.063 264.797,872.48 273.81,872.48C282.823,872.48 290.24,865.063 290.24,856.05C290.24,847.037 282.823,839.62 273.81,839.62M326.74,839.62C317.727,839.62 310.31,847.037 310.31,856.05C310.31,865.063 317.727,872.48 326.74,872.48C335.753,872.48 343.17,865.063 343.17,856.05C343.17,847.037 335.753,839.62 326.74,839.62M379.67,839.62C370.657,839.62 363.24,847.037 363.24,856.05C363.24,865.063 370.657,872.48 379.67,872.48C388.683,872.48 396.1,865.063 396.1,856.05C396.1,847.037 388.683,839.62 379.67,839.62M750.19,839.62C741.177,839.62 733.76,847.037 733.76,856.05C733.76,865.063 741.177,872.48 750.19,872.48C759.203,872.48 766.62,865.063 766.62,856.05C766.62,847.037 759.203,839.62 750.19,839.62M803.12,839.62C794.107,839.62 786.69,847.037 786.69,856.05C786.69,865.063 794.107,872.48 803.12,872.48C812.133,872.48 819.55,865.063 819.55,856.05C819.55,847.037 812.133,839.62 803.12,839.62M908.98,839.62C899.967,839.62 892.55,847.037 892.55,856.05C892.55,865.063 899.967,872.48 908.98,872.48C917.993,872.48 925.41,865.063 925.41,856.05C925.41,847.037 917.993,839.62 908.98,839.62M115.02,892.55C106.007,892.55 98.59,899.967 98.59,908.98C98.59,917.993 106.007,925.41 115.02,925.41C124.033,925.41 131.45,917.993 131.45,908.98C131.45,899.967 124.033,892.55 115.02,892.55M167.95,892.55C158.937,892.55 151.52,899.967 151.52,908.98C151.52,917.993 158.937,925.41 167.95,925.41C176.963,925.41 184.38,917.993 184.38,908.98C184.38,899.967 176.963,892.55 167.95,892.55M220.88,892.55C211.867,892.55 204.45,899.967 204.45,908.98C204.45,917.993 211.867,925.41 220.88,925.41C229.893,925.41 237.31,917.993 237.31,908.98C237.31,899.967 229.893,892.55 220.88,892.55M273.81,892.55C264.797,892.55 257.38,899.967 257.38,908.98C257.38,917.993 264.797,925.41 273.81,925.41C282.823,925.41 290.24,917.993 290.24,908.98C290.24,899.967 282.823,892.55 273.81,892.55M379.67,892.55C370.657,892.55 363.24,899.967 363.24,908.98C363.24,917.993 370.657,925.41 379.67,925.41C388.683,925.41 396.1,917.993 396.1,908.98C396.1,899.967 388.683,892.55 379.67,892.55M432.6,892.55C423.587,892.55 416.17,899.967 416.17,908.98C416.17,917.993 423.587,925.41 432.6,925.41C441.613,925.41 449.03,917.993 449.03,908.98C449.03,899.967 441.613,892.55 432.6,892.55M591.4,892.55C582.387,892.55 574.97,899.967 574.97,908.98C574.97,917.993 582.387,925.41 591.4,925.41C600.413,925.41 607.83,917.993 607.83,908.98C607.83,899.967 600.413,892.55 591.4,892.55M856.05,892.55C847.037,892.55 839.62,899.967 839.62,908.98C839.62,917.993 847.037,925.41 856.05,925.41C865.063,925.41 872.48,917.993 872.48,908.98C872.48,899.967 865.063,892.55 856.05,892.55M908.98,892.55C899.967,892.55 892.55,899.967 892.55,908.98C892.55,917.993 899.967,925.41 908.98,925.41C917.993,925.41 925.41,917.993 925.41,908.98C925.41,899.967 917.993,892.55 908.98,892.55M326.74,945.48C317.727,945.48 310.31,952.897 310.31,961.91C310.31,970.923 317.727,978.34 326.74,978.34C335.753,978.34 343.17,970.923 343.17,961.91C343.17,952.897 335.753,945.48 326.74,945.48M379.67,945.48C370.657,945.48 363.24,952.897 363.24,961.91C363.24,970.923 370.657,978.34 379.67,978.34C388.683,978.34 396.1,970.923 396.1,961.91C396.1,952.897 388.683,945.48 379.67,945.48M432.6,945.48C423.587,945.48 416.17,952.897 416.17,961.91C416.17,970.923 423.587,978.34 432.6,978.34C441.613,978.34 449.03,970.923 449.03,961.91C449.03,952.897 441.613,945.48 432.6,945.48M644.33,945.48C635.317,945.48 627.9,952.897 627.9,961.91C627.9,970.923 635.317,978.34 644.33,978.34C653.343,978.34 660.76,970.923 660.76,961.91C660.76,952.897 653.343,945.48 644.33,945.48M697.26,945.48C688.247,945.48 680.83,952.897 680.83,961.91C680.83,970.923 688.247,978.34 697.26,978.34C706.273,978.34 713.69,970.923 713.69,961.91C713.69,952.897 706.273,945.48 697.26,945.48" style="fill:rgb(255,252,0);fill-rule:nonzero;"/>
</svg>
